<mxfile host="app.diagrams.net" modified="2023-10-02T05:27:51.986Z" agent="Mozilla/5.0 (Macintosh; Intel Mac OS X 10.15; rv:109.0) Gecko/20100101 Firefox/118.0" etag="uQspJQbV08oKmPSJGqvk" version="21.6.6" type="github">
  <diagram id="C5RBs43oDa-KdzZeNtuy" name="Page-1">
    <mxGraphModel dx="2405" dy="1114" grid="0" gridSize="13" guides="1" tooltips="1" connect="1" arrows="1" fold="1" page="1" pageScale="1" pageWidth="827" pageHeight="1169" background="#ffffff" math="0" shadow="0">
      <root>
        <mxCell id="WIyWlLk6GJQsqaUBKTNV-0" />
        <mxCell id="WIyWlLk6GJQsqaUBKTNV-1" parent="WIyWlLk6GJQsqaUBKTNV-0" />
        <mxCell id="5cfgDj9ZJlleOXA8Xs8b-1" value="Start" style="strokeWidth=2;html=1;shape=mxgraph.flowchart.start_1;whiteSpace=wrap;fillColor=#f8cecc;strokeColor=#b85450;" vertex="1" parent="WIyWlLk6GJQsqaUBKTNV-1">
          <mxGeometry x="-467" y="49" width="100" height="60" as="geometry" />
        </mxCell>
        <mxCell id="5cfgDj9ZJlleOXA8Xs8b-2" value="" style="edgeStyle=none;orthogonalLoop=1;jettySize=auto;html=1;rounded=0;exitX=0.5;exitY=1;exitDx=0;exitDy=0;exitPerimeter=0;entryX=0.5;entryY=0;entryDx=0;entryDy=0;" edge="1" parent="WIyWlLk6GJQsqaUBKTNV-1" source="5cfgDj9ZJlleOXA8Xs8b-1" target="5cfgDj9ZJlleOXA8Xs8b-5">
          <mxGeometry width="100" relative="1" as="geometry">
            <mxPoint x="-720" y="130" as="sourcePoint" />
            <mxPoint x="-417" y="184" as="targetPoint" />
            <Array as="points" />
          </mxGeometry>
        </mxCell>
        <mxCell id="5cfgDj9ZJlleOXA8Xs8b-9" style="edgeStyle=orthogonalEdgeStyle;rounded=0;orthogonalLoop=1;jettySize=auto;html=1;entryX=1;entryY=0.5;entryDx=0;entryDy=0;exitX=0.452;exitY=0.331;exitDx=0;exitDy=0;exitPerimeter=0;" edge="1" parent="WIyWlLk6GJQsqaUBKTNV-1" source="5cfgDj9ZJlleOXA8Xs8b-3" target="5cfgDj9ZJlleOXA8Xs8b-5">
          <mxGeometry relative="1" as="geometry">
            <mxPoint x="12" y="583" as="sourcePoint" />
            <Array as="points">
              <mxPoint x="12" y="192" />
            </Array>
          </mxGeometry>
        </mxCell>
        <mxCell id="5cfgDj9ZJlleOXA8Xs8b-53" style="edgeStyle=orthogonalEdgeStyle;rounded=0;orthogonalLoop=1;jettySize=auto;html=1;entryX=0.451;entryY=-0.041;entryDx=0;entryDy=0;entryPerimeter=0;" edge="1" parent="WIyWlLk6GJQsqaUBKTNV-1" source="5cfgDj9ZJlleOXA8Xs8b-3" target="5cfgDj9ZJlleOXA8Xs8b-43">
          <mxGeometry relative="1" as="geometry" />
        </mxCell>
        <mxCell id="5cfgDj9ZJlleOXA8Xs8b-3" value="&lt;div&gt;&lt;font color=&quot;#ffffff&quot;&gt;&lt;br&gt;&lt;/font&gt;&lt;/div&gt;&lt;div&gt;&lt;font color=&quot;#ffffff&quot;&gt;Agency &lt;br&gt;&lt;/font&gt;&lt;/div&gt;&lt;div&gt;&lt;font color=&quot;#ffffff&quot;&gt;Database&lt;br&gt;&lt;/font&gt;&lt;/div&gt;" style="strokeWidth=2;html=1;shape=mxgraph.flowchart.database;whiteSpace=wrap;fillColor=#0066CC;" vertex="1" parent="WIyWlLk6GJQsqaUBKTNV-1">
          <mxGeometry x="-62" y="336" width="166" height="153" as="geometry" />
        </mxCell>
        <mxCell id="5cfgDj9ZJlleOXA8Xs8b-11" value="" style="edgeStyle=orthogonalEdgeStyle;rounded=0;orthogonalLoop=1;jettySize=auto;html=1;" edge="1" parent="WIyWlLk6GJQsqaUBKTNV-1" source="5cfgDj9ZJlleOXA8Xs8b-5" target="5cfgDj9ZJlleOXA8Xs8b-10">
          <mxGeometry relative="1" as="geometry" />
        </mxCell>
        <mxCell id="5cfgDj9ZJlleOXA8Xs8b-5" value="&lt;div&gt;List of all apps&lt;/div&gt;&lt;div&gt;having appsflyer&lt;/div&gt;&lt;div&gt;as attribution tool&lt;br&gt;&lt;/div&gt;" style="shape=parallelogram;html=1;strokeWidth=2;perimeter=parallelogramPerimeter;whiteSpace=wrap;rounded=1;arcSize=12;size=0.23;fillColor=#e1d5e7;strokeColor=#9673a6;" vertex="1" parent="WIyWlLk6GJQsqaUBKTNV-1">
          <mxGeometry x="-512" y="160" width="190" height="63.5" as="geometry" />
        </mxCell>
        <mxCell id="5cfgDj9ZJlleOXA8Xs8b-13" value="" style="edgeStyle=orthogonalEdgeStyle;rounded=0;orthogonalLoop=1;jettySize=auto;html=1;" edge="1" parent="WIyWlLk6GJQsqaUBKTNV-1" source="5cfgDj9ZJlleOXA8Xs8b-10" target="5cfgDj9ZJlleOXA8Xs8b-12">
          <mxGeometry relative="1" as="geometry" />
        </mxCell>
        <mxCell id="5cfgDj9ZJlleOXA8Xs8b-10" value="&lt;div&gt;&amp;nbsp;looping &lt;br&gt;&lt;/div&gt;&lt;div&gt;over the apps&lt;br&gt;&lt;/div&gt;" style="whiteSpace=wrap;html=1;strokeWidth=2;rounded=1;arcSize=12;fillColor=#d5e8d4;strokeColor=#82b366;" vertex="1" parent="WIyWlLk6GJQsqaUBKTNV-1">
          <mxGeometry x="-489.5" y="284" width="145" height="101.75" as="geometry" />
        </mxCell>
        <mxCell id="5cfgDj9ZJlleOXA8Xs8b-19" value="" style="edgeStyle=orthogonalEdgeStyle;rounded=0;orthogonalLoop=1;jettySize=auto;html=1;" edge="1" parent="WIyWlLk6GJQsqaUBKTNV-1" source="5cfgDj9ZJlleOXA8Xs8b-12" target="5cfgDj9ZJlleOXA8Xs8b-18">
          <mxGeometry relative="1" as="geometry" />
        </mxCell>
        <mxCell id="5cfgDj9ZJlleOXA8Xs8b-12" value="&lt;div&gt;Package &lt;br&gt;&lt;/div&gt;&lt;div&gt;Name ?&lt;br&gt;&lt;/div&gt;" style="rhombus;whiteSpace=wrap;html=1;strokeWidth=2;rounded=1;arcSize=12;fillColor=#ffe6cc;strokeColor=#d79b00;" vertex="1" parent="WIyWlLk6GJQsqaUBKTNV-1">
          <mxGeometry x="-477.75" y="438" width="121.5" height="93" as="geometry" />
        </mxCell>
        <mxCell id="5cfgDj9ZJlleOXA8Xs8b-15" value="" style="endArrow=classic;html=1;rounded=0;exitX=1;exitY=0.5;exitDx=0;exitDy=0;entryX=1;entryY=0.5;entryDx=0;entryDy=0;" edge="1" parent="WIyWlLk6GJQsqaUBKTNV-1" source="5cfgDj9ZJlleOXA8Xs8b-12" target="5cfgDj9ZJlleOXA8Xs8b-10">
          <mxGeometry relative="1" as="geometry">
            <mxPoint x="-357" y="637" as="sourcePoint" />
            <mxPoint x="-363" y="536" as="targetPoint" />
            <Array as="points">
              <mxPoint x="-298" y="486" />
              <mxPoint x="-298" y="335" />
            </Array>
          </mxGeometry>
        </mxCell>
        <mxCell id="5cfgDj9ZJlleOXA8Xs8b-16" value="NO ? " style="edgeLabel;resizable=0;html=1;align=center;verticalAlign=middle;" connectable="0" vertex="1" parent="5cfgDj9ZJlleOXA8Xs8b-15">
          <mxGeometry relative="1" as="geometry" />
        </mxCell>
        <mxCell id="5cfgDj9ZJlleOXA8Xs8b-21" value="" style="edgeStyle=orthogonalEdgeStyle;rounded=0;orthogonalLoop=1;jettySize=auto;html=1;" edge="1" parent="WIyWlLk6GJQsqaUBKTNV-1" source="5cfgDj9ZJlleOXA8Xs8b-18" target="5cfgDj9ZJlleOXA8Xs8b-20">
          <mxGeometry relative="1" as="geometry" />
        </mxCell>
        <mxCell id="5cfgDj9ZJlleOXA8Xs8b-18" value="&lt;div&gt;Make request to&lt;/div&gt;&lt;div&gt;Appsflyer API&lt;br&gt;&lt;/div&gt;" style="whiteSpace=wrap;html=1;fillColor=#d5e8d4;strokeColor=#82b366;strokeWidth=2;rounded=1;arcSize=12;" vertex="1" parent="WIyWlLk6GJQsqaUBKTNV-1">
          <mxGeometry x="-483.5" y="576" width="133" height="84.5" as="geometry" />
        </mxCell>
        <mxCell id="5cfgDj9ZJlleOXA8Xs8b-33" value="" style="edgeStyle=orthogonalEdgeStyle;rounded=0;orthogonalLoop=1;jettySize=auto;html=1;" edge="1" parent="WIyWlLk6GJQsqaUBKTNV-1" source="5cfgDj9ZJlleOXA8Xs8b-20" target="5cfgDj9ZJlleOXA8Xs8b-32">
          <mxGeometry relative="1" as="geometry" />
        </mxCell>
        <mxCell id="5cfgDj9ZJlleOXA8Xs8b-20" value="&lt;div&gt;Response&lt;/div&gt;&lt;div&gt;OK?&lt;br&gt;&lt;/div&gt;" style="rhombus;whiteSpace=wrap;html=1;fillColor=#ffe6cc;strokeColor=#d79b00;strokeWidth=2;rounded=1;arcSize=12;" vertex="1" parent="WIyWlLk6GJQsqaUBKTNV-1">
          <mxGeometry x="-475" y="712" width="116" height="101.25" as="geometry" />
        </mxCell>
        <mxCell id="5cfgDj9ZJlleOXA8Xs8b-22" value="" style="endArrow=classic;html=1;rounded=0;exitX=1;exitY=0.5;exitDx=0;exitDy=0;" edge="1" parent="WIyWlLk6GJQsqaUBKTNV-1" source="5cfgDj9ZJlleOXA8Xs8b-20" target="5cfgDj9ZJlleOXA8Xs8b-25">
          <mxGeometry relative="1" as="geometry">
            <mxPoint x="-361" y="763" as="sourcePoint" />
            <mxPoint x="-272" y="763" as="targetPoint" />
          </mxGeometry>
        </mxCell>
        <mxCell id="5cfgDj9ZJlleOXA8Xs8b-23" value="NO" style="edgeLabel;resizable=0;html=1;align=center;verticalAlign=middle;" connectable="0" vertex="1" parent="5cfgDj9ZJlleOXA8Xs8b-22">
          <mxGeometry relative="1" as="geometry" />
        </mxCell>
        <mxCell id="5cfgDj9ZJlleOXA8Xs8b-25" value="Max Retry ?" style="strokeWidth=2;html=1;shape=mxgraph.flowchart.decision;whiteSpace=wrap;fillColor=#ffe6cc;strokeColor=#d79b00;" vertex="1" parent="WIyWlLk6GJQsqaUBKTNV-1">
          <mxGeometry x="-280" y="713.25" width="100" height="100" as="geometry" />
        </mxCell>
        <mxCell id="5cfgDj9ZJlleOXA8Xs8b-26" value="" style="endArrow=classic;html=1;rounded=0;entryX=1;entryY=0.5;entryDx=0;entryDy=0;exitX=0.5;exitY=0;exitDx=0;exitDy=0;exitPerimeter=0;" edge="1" parent="WIyWlLk6GJQsqaUBKTNV-1" source="5cfgDj9ZJlleOXA8Xs8b-25" target="5cfgDj9ZJlleOXA8Xs8b-18">
          <mxGeometry relative="1" as="geometry">
            <mxPoint x="-236" y="710" as="sourcePoint" />
            <mxPoint x="-236" y="615" as="targetPoint" />
            <Array as="points">
              <mxPoint x="-230" y="618" />
            </Array>
          </mxGeometry>
        </mxCell>
        <mxCell id="5cfgDj9ZJlleOXA8Xs8b-27" value="NO?" style="edgeLabel;resizable=0;html=1;align=center;verticalAlign=middle;" connectable="0" vertex="1" parent="5cfgDj9ZJlleOXA8Xs8b-26">
          <mxGeometry relative="1" as="geometry">
            <mxPoint x="13" as="offset" />
          </mxGeometry>
        </mxCell>
        <mxCell id="5cfgDj9ZJlleOXA8Xs8b-30" value="" style="endArrow=classic;html=1;rounded=0;entryX=1;entryY=0.25;entryDx=0;entryDy=0;exitX=1;exitY=0.5;exitDx=0;exitDy=0;exitPerimeter=0;" edge="1" parent="WIyWlLk6GJQsqaUBKTNV-1" source="5cfgDj9ZJlleOXA8Xs8b-25" target="5cfgDj9ZJlleOXA8Xs8b-10">
          <mxGeometry relative="1" as="geometry">
            <mxPoint x="-180" y="763.25" as="sourcePoint" />
            <mxPoint x="-114" y="308" as="targetPoint" />
            <Array as="points">
              <mxPoint x="-129" y="767" />
              <mxPoint x="-129" y="309" />
            </Array>
          </mxGeometry>
        </mxCell>
        <mxCell id="5cfgDj9ZJlleOXA8Xs8b-31" value="YES?" style="edgeLabel;resizable=0;html=1;align=center;verticalAlign=middle;" connectable="0" vertex="1" parent="5cfgDj9ZJlleOXA8Xs8b-30">
          <mxGeometry relative="1" as="geometry">
            <mxPoint x="-5" y="84" as="offset" />
          </mxGeometry>
        </mxCell>
        <mxCell id="5cfgDj9ZJlleOXA8Xs8b-35" value="" style="edgeStyle=orthogonalEdgeStyle;rounded=0;orthogonalLoop=1;jettySize=auto;html=1;" edge="1" parent="WIyWlLk6GJQsqaUBKTNV-1" source="5cfgDj9ZJlleOXA8Xs8b-32" target="5cfgDj9ZJlleOXA8Xs8b-34">
          <mxGeometry relative="1" as="geometry" />
        </mxCell>
        <mxCell id="5cfgDj9ZJlleOXA8Xs8b-32" value="&lt;div&gt;Loop over the&lt;/div&gt;&lt;div&gt;Data &lt;br&gt;&lt;/div&gt;" style="whiteSpace=wrap;html=1;fillColor=#d5e8d4;strokeColor=#82b366;strokeWidth=2;rounded=1;arcSize=12;" vertex="1" parent="WIyWlLk6GJQsqaUBKTNV-1">
          <mxGeometry x="-476.25" y="878.005" width="120" height="60" as="geometry" />
        </mxCell>
        <mxCell id="5cfgDj9ZJlleOXA8Xs8b-34" value="&lt;div&gt;Media Source&lt;/div&gt;&lt;div&gt;&amp;amp; &lt;br&gt;&lt;/div&gt;&lt;div&gt;Campaign Name&lt;br&gt;&lt;/div&gt;&lt;div&gt;&lt;br&gt;&lt;/div&gt;" style="rhombus;whiteSpace=wrap;html=1;fillColor=#ffe6cc;strokeColor=#d79b00;strokeWidth=2;rounded=1;arcSize=12;" vertex="1" parent="WIyWlLk6GJQsqaUBKTNV-1">
          <mxGeometry x="-255" y="852.51" width="175.25" height="111" as="geometry" />
        </mxCell>
        <mxCell id="5cfgDj9ZJlleOXA8Xs8b-38" value="" style="endArrow=classic;html=1;rounded=0;exitX=1;exitY=0.5;exitDx=0;exitDy=0;entryX=0;entryY=0.5;entryDx=0;entryDy=0;" edge="1" parent="WIyWlLk6GJQsqaUBKTNV-1" source="5cfgDj9ZJlleOXA8Xs8b-34" target="5cfgDj9ZJlleOXA8Xs8b-48">
          <mxGeometry relative="1" as="geometry">
            <mxPoint x="-124" y="907.34" as="sourcePoint" />
            <mxPoint x="-6" y="911" as="targetPoint" />
          </mxGeometry>
        </mxCell>
        <mxCell id="5cfgDj9ZJlleOXA8Xs8b-39" value="YES" style="edgeLabel;resizable=0;html=1;align=center;verticalAlign=middle;" connectable="0" vertex="1" parent="5cfgDj9ZJlleOXA8Xs8b-38">
          <mxGeometry relative="1" as="geometry" />
        </mxCell>
        <mxCell id="5cfgDj9ZJlleOXA8Xs8b-40" value="" style="endArrow=classic;html=1;rounded=0;exitX=0.5;exitY=1;exitDx=0;exitDy=0;entryX=0.5;entryY=1;entryDx=0;entryDy=0;" edge="1" parent="WIyWlLk6GJQsqaUBKTNV-1" source="5cfgDj9ZJlleOXA8Xs8b-34" target="5cfgDj9ZJlleOXA8Xs8b-32">
          <mxGeometry relative="1" as="geometry">
            <mxPoint x="-118" y="923" as="sourcePoint" />
            <mxPoint x="-12" y="928" as="targetPoint" />
            <Array as="points">
              <mxPoint x="-169" y="1018" />
              <mxPoint x="-416" y="1018" />
            </Array>
          </mxGeometry>
        </mxCell>
        <mxCell id="5cfgDj9ZJlleOXA8Xs8b-41" value="NO?" style="edgeLabel;resizable=0;html=1;align=center;verticalAlign=middle;" connectable="0" vertex="1" parent="5cfgDj9ZJlleOXA8Xs8b-40">
          <mxGeometry relative="1" as="geometry">
            <mxPoint x="1" y="1" as="offset" />
          </mxGeometry>
        </mxCell>
        <mxCell id="5cfgDj9ZJlleOXA8Xs8b-43" value="&lt;div&gt;External ID&#39;S &lt;br&gt;&lt;/div&gt;&lt;div&gt;MAP&lt;br&gt;&lt;/div&gt;" style="strokeWidth=2;html=1;shape=mxgraph.flowchart.direct_data;whiteSpace=wrap;fillColor=#dae8fc;strokeColor=#6c8ebf;" vertex="1" parent="WIyWlLk6GJQsqaUBKTNV-1">
          <mxGeometry x="-49" y="596" width="156" height="90" as="geometry" />
        </mxCell>
        <mxCell id="5cfgDj9ZJlleOXA8Xs8b-44" value="Iteration data" style="strokeWidth=2;html=1;shape=mxgraph.flowchart.direct_data;whiteSpace=wrap;" vertex="1" parent="WIyWlLk6GJQsqaUBKTNV-1">
          <mxGeometry x="76" y="1207" width="187" height="108" as="geometry" />
        </mxCell>
        <mxCell id="5cfgDj9ZJlleOXA8Xs8b-49" style="edgeStyle=orthogonalEdgeStyle;rounded=0;orthogonalLoop=1;jettySize=auto;html=1;" edge="1" parent="WIyWlLk6GJQsqaUBKTNV-1" source="5cfgDj9ZJlleOXA8Xs8b-48" target="5cfgDj9ZJlleOXA8Xs8b-44">
          <mxGeometry relative="1" as="geometry">
            <Array as="points">
              <mxPoint x="50" y="1261" />
            </Array>
          </mxGeometry>
        </mxCell>
        <mxCell id="5cfgDj9ZJlleOXA8Xs8b-51" value="" style="edgeStyle=orthogonalEdgeStyle;rounded=0;orthogonalLoop=1;jettySize=auto;html=1;" edge="1" parent="WIyWlLk6GJQsqaUBKTNV-1" source="5cfgDj9ZJlleOXA8Xs8b-48" target="5cfgDj9ZJlleOXA8Xs8b-50">
          <mxGeometry relative="1" as="geometry" />
        </mxCell>
        <mxCell id="5cfgDj9ZJlleOXA8Xs8b-48" value="Add to loop report" style="rounded=1;whiteSpace=wrap;html=1;absoluteArcSize=1;arcSize=14;strokeWidth=2;fillColor=#d5e8d4;strokeColor=#82b366;" vertex="1" parent="WIyWlLk6GJQsqaUBKTNV-1">
          <mxGeometry x="4" y="882.51" width="145" height="53.49" as="geometry" />
        </mxCell>
        <mxCell id="5cfgDj9ZJlleOXA8Xs8b-52" style="edgeStyle=orthogonalEdgeStyle;rounded=0;orthogonalLoop=1;jettySize=auto;html=1;entryX=1;entryY=0.5;entryDx=0;entryDy=0;entryPerimeter=0;" edge="1" parent="WIyWlLk6GJQsqaUBKTNV-1" source="5cfgDj9ZJlleOXA8Xs8b-50" target="5cfgDj9ZJlleOXA8Xs8b-43">
          <mxGeometry relative="1" as="geometry">
            <Array as="points">
              <mxPoint x="305" y="631" />
              <mxPoint x="148" y="631" />
              <mxPoint x="148" y="641" />
            </Array>
          </mxGeometry>
        </mxCell>
        <mxCell id="5cfgDj9ZJlleOXA8Xs8b-58" value="" style="edgeStyle=orthogonalEdgeStyle;rounded=0;orthogonalLoop=1;jettySize=auto;html=1;" edge="1" parent="WIyWlLk6GJQsqaUBKTNV-1" source="5cfgDj9ZJlleOXA8Xs8b-50" target="5cfgDj9ZJlleOXA8Xs8b-57">
          <mxGeometry relative="1" as="geometry" />
        </mxCell>
        <mxCell id="5cfgDj9ZJlleOXA8Xs8b-50" value="get campaign id" style="whiteSpace=wrap;html=1;rounded=1;arcSize=14;strokeWidth=2;fillColor=#d5e8d4;strokeColor=#82b366;" vertex="1" parent="WIyWlLk6GJQsqaUBKTNV-1">
          <mxGeometry x="241.5" y="879.255" width="120" height="60" as="geometry" />
        </mxCell>
        <mxCell id="5cfgDj9ZJlleOXA8Xs8b-59" style="edgeStyle=orthogonalEdgeStyle;rounded=0;orthogonalLoop=1;jettySize=auto;html=1;entryX=1;entryY=0.5;entryDx=0;entryDy=0;entryPerimeter=0;" edge="1" parent="WIyWlLk6GJQsqaUBKTNV-1" source="5cfgDj9ZJlleOXA8Xs8b-57" target="5cfgDj9ZJlleOXA8Xs8b-44">
          <mxGeometry relative="1" as="geometry" />
        </mxCell>
        <mxCell id="5cfgDj9ZJlleOXA8Xs8b-60" value="YES?" style="edgeLabel;html=1;align=center;verticalAlign=middle;resizable=0;points=[];" vertex="1" connectable="0" parent="5cfgDj9ZJlleOXA8Xs8b-59">
          <mxGeometry x="-0.298" y="2" relative="1" as="geometry">
            <mxPoint as="offset" />
          </mxGeometry>
        </mxCell>
        <mxCell id="5cfgDj9ZJlleOXA8Xs8b-61" style="edgeStyle=orthogonalEdgeStyle;rounded=0;orthogonalLoop=1;jettySize=auto;html=1;entryX=0.25;entryY=1;entryDx=0;entryDy=0;" edge="1" parent="WIyWlLk6GJQsqaUBKTNV-1" source="5cfgDj9ZJlleOXA8Xs8b-57" target="5cfgDj9ZJlleOXA8Xs8b-32">
          <mxGeometry relative="1" as="geometry" />
        </mxCell>
        <mxCell id="5cfgDj9ZJlleOXA8Xs8b-62" value="NO" style="edgeLabel;html=1;align=center;verticalAlign=middle;resizable=0;points=[];" vertex="1" connectable="0" parent="5cfgDj9ZJlleOXA8Xs8b-61">
          <mxGeometry x="-0.1476" y="-5" relative="1" as="geometry">
            <mxPoint y="5" as="offset" />
          </mxGeometry>
        </mxCell>
        <mxCell id="5cfgDj9ZJlleOXA8Xs8b-57" value="Campaign id?" style="rhombus;whiteSpace=wrap;html=1;rounded=1;arcSize=14;strokeWidth=2;fillColor=#ffe6cc;strokeColor=#d79b00;" vertex="1" parent="WIyWlLk6GJQsqaUBKTNV-1">
          <mxGeometry x="249.25" y="1010" width="104.5" height="99.74" as="geometry" />
        </mxCell>
      </root>
    </mxGraphModel>
  </diagram>
</mxfile>
